<?xml version="1.0" encoding="utf-8"?>
<!-- Generator: Adobe Illustrator 28.0.0, SVG Export Plug-In . SVG Version: 6.00 Build 0)  -->
<svg version="1.1" id="Layer_1" xmlns="http://www.w3.org/2000/svg" xmlns:xlink="http://www.w3.org/1999/xlink" x="0px" y="0px"
	 viewBox="0 0 512 512" style="enable-background:new 0 0 512 512;" xml:space="preserve">
<style type="text/css">
	.st0{fill-rule:evenodd;clip-rule:evenodd;fill:url(#SVGID_1_);}
	.st1{fill-rule:evenodd;clip-rule:evenodd;fill:url(#SVGID_00000008145930220977951340000014078883273285221567_);}
	.st2{fill-rule:evenodd;clip-rule:evenodd;fill:url(#SVGID_00000021086321373137677300000013267738455972414375_);}
	.st3{fill-rule:evenodd;clip-rule:evenodd;fill:url(#SVGID_00000147918423168637289430000004184685936219091631_);}
	.st4{fill-rule:evenodd;clip-rule:evenodd;fill:url(#SVGID_00000099663291528873714190000012126066239830419104_);}
	.st5{fill-rule:evenodd;clip-rule:evenodd;fill:url(#SVGID_00000016072351307253308900000001235429365378422202_);}
	.st6{fill-rule:evenodd;clip-rule:evenodd;fill:url(#SVGID_00000022527271715712255490000007131056038914051466_);}
	.st7{fill-rule:evenodd;clip-rule:evenodd;fill:url(#SVGID_00000098926824074304623760000000906833591691464077_);}
	.st8{fill-rule:evenodd;clip-rule:evenodd;fill:url(#SVGID_00000072243389737585110670000008341394226687566524_);}
	.st9{fill:#5C626B;}
	.st10{fill:#535860;}
	.st11{fill:#DFE0E0;}
	.st12{fill:#C9CACA;}
	.st13{fill:#FBE067;}
	.st14{fill:#E7CE5F;}
	.st15{fill:#494F57;}
	.st16{fill:#CB556A;}
	.st17{fill:#E15F76;}
	.st18{fill:#F7C2AD;}
</style>
<g>
	
		<linearGradient id="SVGID_1_" gradientUnits="userSpaceOnUse" x1="201.5955" y1="318.8701" x2="219.1988" y2="318.8701" gradientTransform="matrix(10.4674 0 0 -12.21 -1935.3463 3965.6799)">
		<stop  offset="0" style="stop-color:#FBAA19"/>
		<stop  offset="1" style="stop-color:#EF3E23"/>
	</linearGradient>
	<path class="st0" d="M213.8,79.3l92.6,50.3L220.8,15C207,33.6,204.3,58.2,213.8,79.3z"/>
	
		<linearGradient id="SVGID_00000029028950960478657500000001657712523233056642_" gradientUnits="userSpaceOnUse" x1="193.5387" y1="291.3635" x2="196.7494" y2="300.1408" gradientTransform="matrix(4.5 0 0 -4.5 -706.21 1617.73)">
		<stop  offset="0" style="stop-color:#F78D1E"/>
		<stop  offset="1" style="stop-color:#F37121"/>
	</linearGradient>
	<path style="fill-rule:evenodd;clip-rule:evenodd;fill:url(#SVGID_00000029028950960478657500000001657712523233056642_);" d="
		M171.9,265.8c11.7,0,21.1,9.5,21.1,21.1c0,11.7-9.5,21.1-21.1,21.1c-11.7,0-21.1-9.5-21.1-21.1
		C150.8,275.2,160.3,265.8,171.9,265.8z"/>
	
		<linearGradient id="SVGID_00000051382772608978535840000015684410897909211047_" gradientUnits="userSpaceOnUse" x1="203.7017" y1="305.169" x2="208.2823" y2="311.0542" gradientTransform="matrix(34.1142 0 0 -40.89 -6846.6792 12800.9102)">
		<stop  offset="0" style="stop-color:#FEBE2D"/>
		<stop  offset="1" style="stop-color:#F04E23"/>
	</linearGradient>
	<path style="fill-rule:evenodd;clip-rule:evenodd;fill:url(#SVGID_00000051382772608978535840000015684410897909211047_);" d="
		M107.5,31.8l259.3,140.7c6.2,3,8.8,10.6,5.8,16.8c-1.2,2.5-3.3,4.6-5.8,5.8c-19.6,11.8-41.1,20.2-63.5,24.8l-53.9,110.7
		c0,0-17.1,38.8-64.1,23.9c19.7-19.7,43.5-37.5,43.5-67.8c0-31.5-25.5-56.9-56.9-56.9s-56.9,25.5-56.9,56.9l0,0
		c0,39.6,39,56.3,60.7,83.8c9.8,13.8,8.5,32.6-3.1,44.9c-26.9-26.6-79-71.6-100.4-101c-11.7-14.9-18.1-33.2-18.3-52.1
		c2.1-41.2,29.8-76.7,69.2-88.8c11.8-3.4,24.1-4.9,36.4-4.4c17.1,1.3,33.8,6.3,48.8,14.7c23,13.5,34.2,9.9,50-3.4
		c9.4-7.7,19.6-32.7,3.8-38.6c-5.2-1.7-10.5-3-15.9-3.9c-29.5-5.7-81-11.2-99.9-22C116.1,99.4,95.8,65.2,107.5,31.8z"/>
	
		<linearGradient id="SVGID_00000136383729394517673730000013722023584757074615_" gradientUnits="userSpaceOnUse" x1="204.7321" y1="309.7299" x2="201.2816" y2="302.3776" gradientTransform="matrix(18.7867 0 0 -26.0057 -3673.9177 8231.46)">
		<stop  offset="0" style="stop-color:#EA4425"/>
		<stop  offset="1" style="stop-color:#FDBB27"/>
	</linearGradient>
	<path style="fill-rule:evenodd;clip-rule:evenodd;fill:url(#SVGID_00000136383729394517673730000013722023584757074615_);" d="
		M228.3,287c12-63.1-52.1-123.4-101.2-114.4l3.3-0.8c-2.6,0.6-5.2,1.2-7.6,2c-39.5,12.1-67.1,47.5-69.2,88.8
		c0.3,19,6.9,37.3,18.8,52.1c21.4,29.5,73.5,74.4,100.4,101c11.6-12.3,12.9-31.1,3.1-44.9c-22.1-27.4-61.2-44.2-61.2-83.7
		c0-31.5,25.5-56.9,57-56.9c31.4,0,56.9,25.5,56.9,56.9L228.3,287z"/>
	
		<linearGradient id="SVGID_00000095309844419420996000000000625086510957246123_" gradientUnits="userSpaceOnUse" x1="198.098" y1="313.2726" x2="215.439" y2="313.2726" gradientTransform="matrix(22.6147 0 0 -17.5638 -4460.9341 5616.4253)">
		<stop  offset="0" style="stop-color:#F47920"/>
		<stop  offset="1" style="stop-color:#E93825"/>
	</linearGradient>
	<path style="fill-rule:evenodd;clip-rule:evenodd;fill:url(#SVGID_00000095309844419420996000000000625086510957246123_);" d="
		M107.5,31.8l197,107.3l5.6,3.1c4.7,3.7,9.4,11,3.3,24.5c-9.4,20.2-46.9,39.7-90.2,24.4c13.5,3.9,22.7-0.6,34.5-10.5
		c9.4-7.7,19.6-32.7,3.8-38.6c-5.2-1.7-10.5-3-15.9-3.9c-29.5-5.7-81-11.2-99.9-22C116.1,99.4,95.8,65.2,107.5,31.8z"/>
	
		<linearGradient id="SVGID_00000016793493981398180260000006389219062851394234_" gradientUnits="userSpaceOnUse" x1="188.4171" y1="317.8921" x2="224.6866" y2="317.8921" gradientTransform="matrix(22 0 0 -12 -4333.3301 3902.79)">
		<stop  offset="0" style="stop-color:#FDCA0B"/>
		<stop  offset="1" style="stop-color:#F5841F"/>
	</linearGradient>
	<path style="fill-rule:evenodd;clip-rule:evenodd;fill:url(#SVGID_00000016793493981398180260000006389219062851394234_);" d="
		M107.5,31.8c20.4,75.1,144.3,81.2,206.4,112.6L107.5,31.8z"/>
	
		<linearGradient id="SVGID_00000018925880121698463130000018017337837491384979_" gradientUnits="userSpaceOnUse" x1="197.6194" y1="310.1521" x2="199.8908" y2="295.4581" gradientTransform="matrix(10.6273 0 0 -19.71 -1981.8452 6298.6797)">
		<stop  offset="0" style="stop-color:#E73C25"/>
		<stop  offset="1" style="stop-color:#FAA21B"/>
	</linearGradient>
	<path style="fill-rule:evenodd;clip-rule:evenodd;fill:url(#SVGID_00000018925880121698463130000018017337837491384979_);" d="
		M175.3,370.8c-21.7-27.4-60.7-44.2-60.7-83.7c0.1-28.6,21.5-52.8,49.9-56.3c-45.3,0.2-81.9,36.8-82.1,82.1c0,5.5,0.6,11.1,1.7,16.5
		c17.9,20.3,43.8,44.2,65.7,64.5c8.5,8,16.4,15.5,22.9,21.9c5.4-6.2,8.7-14,9.4-22.2C182.6,385.3,180.2,377.3,175.3,370.8z"/>
	
		<linearGradient id="SVGID_00000006670379825327722620000018118415637611798404_" gradientUnits="userSpaceOnUse" x1="145.6476" y1="307.2393" x2="251.2781" y2="307.2393" gradientTransform="matrix(11.2133 0 0 -13.2595 -2098.3862 4305.3657)">
		<stop  offset="0" style="stop-color:#FDBA12"/>
		<stop  offset="1" style="stop-color:#F7921E"/>
	</linearGradient>
	<path style="fill-rule:evenodd;clip-rule:evenodd;fill:url(#SVGID_00000006670379825327722620000018118415637611798404_);" d="
		M228,293.7c0.3-2.2,0.5-4.5,0.5-6.8c11.8-63.1-52.3-123.4-101.4-114.4c10.5-2.5,21.3-3.6,32.1-3.2
		C223.6,172.1,241.6,240.9,228,293.7z"/>
	
		<linearGradient id="SVGID_00000070085632204107455400000004711280097637172624_" gradientUnits="userSpaceOnUse" x1="164.2102" y1="318.5932" x2="173.9846" y2="316.8535" gradientTransform="matrix(4.52 0 0 -4.53 -724.64 1615.0802)">
		<stop  offset="0" style="stop-color:#FEBE2D"/>
		<stop  offset="1" style="stop-color:#F04E23"/>
	</linearGradient>
	<path style="fill-rule:evenodd;clip-rule:evenodd;fill:url(#SVGID_00000070085632204107455400000004711280097637172624_);" d="
		M37.9,154.2c11.7,0.1,21.2,9.6,21.2,21.3v21.2H37.9c-11.7,0-21.2-9.5-21.2-21.2c0,0,0,0,0,0C16.7,163.8,26.2,154.3,37.9,154.2z"/>
</g>
<path class="st9" d="M251.2,376.3l-19,19l-35.8-35.8c-5.2-5.2-5.2-13.7,0-19c5.2-5.2,13.7-5.2,19,0L251.2,376.3z"/>
<path class="st10" d="M202.4,337c-2.2,0.6-4.3,1.7-6,3.5c-5.2,5.2-5.2,13.7,0,19l35.8,35.8l9.5-9.5L205.9,350
	C202.3,346.5,201.2,341.5,202.4,337z"/>
<path class="st11" d="M232.1,395.3l19-19l51.8,51.8l-19,19L232.1,395.3z"/>
<path class="st12" d="M232.1,395.3l9.5-9.5l51.8,51.8l-9.5,9.5L232.1,395.3z"/>
<path class="st13" d="M267.8,376.4L232.2,412c-1.1,1.1-2.9,1.1-4,0l-12.7-12.7c-1.1-1.1-1.1-2.9,0-4l35.6-35.6c1.1-1.1,2.9-1.1,4,0
	l12.7,12.7C268.8,373.5,268.8,375.3,267.8,376.4z"/>
<path class="st14" d="M241.4,398.9l-12.7-12.7c-1.1-1.1-1.1-2.9,0-4l-13.1,13.1c-1.1,1.1-1.1,2.9,0,4l12.7,12.7c1.1,1.1,2.9,1.1,4,0
	l13.1-13.1C244.2,399.9,242.4,399.9,241.4,398.9z"/>
<path class="st9" d="M424.3,376.3l19,19l35.8-35.8c5.2-5.2,5.2-13.7,0-19c-5.2-5.2-13.7-5.2-19,0L424.3,376.3z"/>
<path class="st10" d="M473,337c2.2,0.6,4.3,1.7,6,3.5c5.2,5.2,5.2,13.7,0,19l-35.8,35.8l-9.5-9.5l35.8-35.8
	C473.1,346.5,474.2,341.5,473,337z"/>
<path class="st11" d="M391.5,447.1l-18.9-19l51.8-51.8l19,19L391.5,447.1z"/>
<path class="st12" d="M382,437.6l51.8-51.8l9.5,9.5l-51.8,51.8L382,437.6z"/>
<path class="st13" d="M407.7,376.4l35.6,35.6c1.1,1.1,2.9,1.1,4,0l12.7-12.7c1.1-1.1,1.1-2.9,0-4l-35.6-35.6c-1.1-1.1-2.9-1.1-4,0
	l-12.7,12.7C406.6,373.5,406.6,375.3,407.7,376.4z"/>
<path class="st14" d="M434.1,398.9l12.7-12.7c1.1-1.1,1.1-2.9,0-4l13.1,13.1c1.1,1.1,1.1,2.9,0,4L447.2,412c-1.1,1.1-2.9,1.1-4,0
	l-13.1-13.1C431.3,399.9,433,399.9,434.1,398.9z"/>
<path class="st15" d="M235.2,486.5c0-56.6,45.9-102.5,102.5-102.5s102.5,45.9,102.5,102.5H235.2z"/>
<path class="st10" d="M440.2,486.5H271.6l97.6-97.6C410.4,402.2,440.2,440.8,440.2,486.5z"/>
<path class="st16" d="M305.7,486.5h-34.1l97.6-97.6c8.2,2.7,16.1,6.4,23.2,10.8L305.7,486.5z"/>
<path class="st9" d="M235.2,486.5h168.6l-97.6-97.6C265.1,402.2,235.2,440.8,235.2,486.5z"/>
<path class="st10" d="M347.4,384.5c-3.1-0.3-6.4-0.5-9.6-0.5c-56.6,0-102.5,45.9-102.5,102.5h19.3
	C254.4,433.1,295.3,389.3,347.4,384.5z"/>
<path class="st17" d="M369.7,486.5h34.1l-97.6-97.6c-8.2,2.7-16.1,6.4-23.2,10.8L369.7,486.5z"/>
<path class="st16" d="M311.8,394.4l-5.6-5.6c-8.2,2.7-16.1,6.4-23.2,10.8l8.1,8.1C297.5,402.6,304.4,398.1,311.8,394.4z"/>
<path class="st9" d="M447.9,290.7c0,60.8-49.3,110.1-110.1,110.1s-110.1-49.3-110.1-110.1S277,180.6,337.8,180.6
	S447.9,229.8,447.9,290.7z"/>
<path class="st10" d="M246.1,290.7c0-57.7,44.4-105.1,100.9-109.7c-3-0.3-6.1-0.4-9.2-0.4c-60.8,0-110.1,49.3-110.1,110.1
	S277,400.8,337.8,400.8c3.1,0,6.2-0.1,9.2-0.4C290.5,395.7,246.1,348.4,246.1,290.7z"/>
<path class="st10" d="M227.6,290.7c0,2.7,0.1,5.4,0.3,8c0.4,0,0.9,0.1,1.3,0.1h217.1c0.4,0,0.9,0,1.3-0.1c0.2-2.7,0.3-5.3,0.3-8
	c0-8.4-0.9-16.5-2.7-24.4H230.3C228.5,274.1,227.6,282.3,227.6,290.7z"/>
<path class="st18" d="M378.1,337.5l-13.7-5.7c-17-7.1-36.2-7.1-53.2,0l-13.7,5.7c-16.4,6.8-34.5-5.2-34.5-23c0-13.8,11.2-25,25-25
	h99.9c13.8,0,25,11.2,25,25C412.6,332.2,394.5,344.4,378.1,337.5z"/>
<path class="st17" d="M229.1,289.5h217.1c4.3,0,7.7-3.6,7.4-7.9c-1-12-3.9-23.5-8.4-34.1c-1.1-2.7-3.8-4.5-6.8-4.5H237
	c-2.9,0-5.6,1.7-6.8,4.5c-4.6,10.6-7.4,22.1-8.4,34.1C221.5,285.8,224.8,289.5,229.1,289.5z"/>
<path class="st16" d="M240.3,281.6c1-12,3.9-23.5,8.4-34.1c1.1-2.7,3.8-4.5,6.8-4.5H237c-2.9,0-5.6,1.7-6.8,4.5
	c-4.6,10.6-7.4,22.1-8.4,34.1c-0.3,4.3,3.1,7.9,7.4,7.9h18.5C243.3,289.5,239.9,285.8,240.3,281.6z"/>
<g>
	<path class="st15" d="M208.5,352.7l-9.5,9.5l6.6,6.6l9.5-9.5c1.8-1.8,1.8-4.8,0-6.6S210.3,350.8,208.5,352.7z"/>
	<path class="st15" d="M219.4,363.5l-9.5,9.5l6.6,6.6l9.4-9.5c1.8-1.8,1.8-4.8,0-6.6C224.1,361.7,221.2,361.7,219.4,363.5z"/>
	<path class="st15" d="M466.9,352.7c-1.8-1.8-4.8-1.8-6.6,0c-1.8,1.8-1.8,4.8,0,6.6l9.5,9.5l6.6-6.6L466.9,352.7z"/>
	<path class="st15" d="M456,363.5c-1.8-1.8-4.8-1.8-6.6,0c-1.8,1.8-1.8,4.8,0,6.6l9.5,9.5l6.6-6.6L456,363.5z"/>
	<path class="st15" d="M377,317.4c-2.5,0-4.5-2-4.5-4.5v-7c0-2.5,2-4.5,4.5-4.5s4.5,2,4.5,4.5v7C381.4,315.4,379.4,317.4,377,317.4z
		"/>
	<path class="st15" d="M298.5,317.4c-2.5,0-4.5-2-4.5-4.5v-7c0-2.5,2-4.5,4.5-4.5s4.5,2,4.5,4.5v7C303,315.4,301,317.4,298.5,317.4z
		"/>
</g>
</svg>
